# xmcd CD database file
#
# Track frame offsets:
#	150
#	21975
#	42600
#	61575
#	81470
#	96845
#	119431
#	139306
#	153715
#	183668
#
# Disc length: 2723 seconds
#
# Revision: 0
# Processed by: cddbd v1.5.2PL0 Copyright (c) Steve Scherf et al.
# Submitted via: CDex 1.51
#
DISCID=910aa10a
DTITLE=Big Ray and Chicago's Most Wanted - Travellin' Lite
DYEAR=2010
DGENRE=Blues
TTITLE0=Travellin' Lite
TTITLE1=5am Blues
TTITLE2=I'm the Boss
TTITLE3=Tell Me Whats the Reason
TTITLE4=Groove for Chico
TTITLE5=Sweet Papa John
TTITLE6=Doggone Ya
TTITLE7=Big Ray's Blues
TTITLE8=Cant Leave Her Alone
TTITLE9=Just Funkin'
EXTD=YEAR: 2010
EXTT0=
EXTT1=
EXTT2=
EXTT3=
EXTT4=
EXTT5=
EXTT6=
EXTT7=
EXTT8=
EXTT9=
PLAYORDER=
